<?xml version="1.0" standalone="no"?><!DOCTYPE svg PUBLIC "-//W3C//DTD SVG 1.1//EN" "http://www.w3.org/Graphics/SVG/1.1/DTD/svg11.dtd"><svg t="1498554963181" class="icon" style="" viewBox="0 0 1000 1000" version="1.1" xmlns="http://www.w3.org/2000/svg" p-id="20532" xmlns:xlink="http://www.w3.org/1999/xlink" width="200" height="200"><defs><style type="text/css"></style></defs><path d="M883.3663 412.6822c0-203.9497-165.3527-369.3186-369.3347-369.3186-203.9811 0-369.3337 165.3679-369.3337 369.3186 0 114.989 52.5405 217.6864 134.9211 285.4175l190.8474 200.2232c9.8307 13.246 25.5877 21.8352 43.3424 21.8352 16.3706 0 31.0232-7.2981 40.9139-18.8023h0.006995543838574828l200.5313-208.9993c17.6088-15.1997 33.7645-32.0373 48.2363-50.2719l8.1298-8.4733h-1.5949839951950608C856.0917 572.0042 883.3663 495.532 883.3663 412.6822zM513.9646 596.0299c-112.971 0-204.5377-91.5619-204.5377-204.5073 0-112.9674 91.5667-204.5293 204.5377-204.5293 112.9501 0 204.5157 91.5629 204.5157 204.5293C718.4813 504.468 626.9157 596.0299 513.9646 596.0299z" p-id="20533"></path></svg>